<?xml version="1.0" encoding="UTF-8" standalone="no"?>
<svg
   id="Livello_1"
   viewBox="0 0 16 16.250809"
   version="1.1"
   sodipodi:docname="clea_bw_16x16.svg"
   width="16"
   height="16.250809"
   inkscape:version="1.3.1 (9b9bdc1480, 2023-11-25, custom)"
   xmlns:inkscape="http://www.inkscape.org/namespaces/inkscape"
   xmlns:sodipodi="http://sodipodi.sourceforge.net/DTD/sodipodi-0.dtd"
   xmlns="http://www.w3.org/2000/svg"
   xmlns:svg="http://www.w3.org/2000/svg">
  <sodipodi:namedview
     id="namedview2"
     pagecolor="#ffffff"
     bordercolor="#000000"
     borderopacity="0.25"
     inkscape:showpageshadow="2"
     inkscape:pageopacity="0.0"
     inkscape:pagecheckerboard="0"
     inkscape:deskcolor="#d1d1d1"
     inkscape:zoom="23.835689"
     inkscape:cx="4.1534357"
     inkscape:cy="4.3422282"
     inkscape:window-width="2494"
     inkscape:window-height="1371"
     inkscape:window-x="0"
     inkscape:window-y="0"
     inkscape:window-maximized="1"
     inkscape:current-layer="Livello_1" />
  <defs
     id="defs1">
    <style
       id="style1">.cls-1{fill:#056cee;}.cls-2{fill:#312f73;}.cls-3{fill:#3dd58c;}</style>
  </defs>
  <rect
     class="cls-3"
     x="7.0380936"
     y="6.53087"
     width="3.221298"
     height="3.221298"
     id="rect1"
     style="stroke-width:0.0700587" />
  <path
     class="cls-2"
     d="M 2.889216,13.098868 V 3.152638 H 14.177771 L 15.99159,0.0028 15.98879,0 H 1.44461 C 0.648043,-1.9999958e-6 0,0.70689 0,1.576318 v 13.098169 c 0,0.869429 0.648043,1.576321 1.44461,1.576321 h 14.130134 c 0.146422,0 0.289342,-0.02452 0.425256,-0.06936 l -1.775286,-3.082581 z"
     id="path1"
     style="stroke-width:0.0700587" />
  <path
     class="cls-1"
     d="M 11.673874,4.802519 H 5.623606 c -0.173044,0 -0.313862,0.140818 -0.313862,0.313863 v 6.050267 c 0,0.173045 0.140818,0.313864 0.313862,0.313864 h 6.050268 c 0.173044,0 0.313862,-0.140819 0.313862,-0.313864 V 5.116382 c 0,-0.173045 -0.140818,-0.313863 -0.313862,-0.313863 M 10.108763,9.752166 H 7.188717 c -0.08337,0 -0.150626,-0.06726 -0.150626,-0.150627 V 6.681494 c 0,-0.08337 0.06726,-0.150627 0.150626,-0.150627 h 2.920046 c 0.08337,0 0.150626,0.06726 0.150626,0.150627 v 2.920045 c 0,0.08337 -0.06726,0.150627 -0.150626,0.150627"
     id="path2"
     style="stroke-width:0.0700587" />
</svg>
